<?xml version="1.0" encoding="UTF-8"?>
<svg id="Timeline" xmlns="http://www.w3.org/2000/svg" viewBox="0 0 1133 744">
  <defs>
    <style>
      .cls-1 {
        letter-spacing: -.07em;
      }

      .cls-2, .cls-3, .cls-4, .cls-5, .cls-6, .cls-7, .cls-8, .cls-9, .cls-10, .cls-11, .cls-12, .cls-13 {
        font-family: FuturaPT-Book, 'Futura PT';
      }

      .cls-2, .cls-14, .cls-4, .cls-15, .cls-16, .cls-8, .cls-10, .cls-17 {
        fill: #2b1604;
      }

      .cls-2, .cls-5, .cls-6 {
        font-size: 8px;
      }

      .cls-3, .cls-5, .cls-11, .cls-12 {
        fill: #fff;
      }

      .cls-3, .cls-9, .cls-10 {
        font-size: 42px;
      }

      .cls-18 {
        fill: #850094;
      }

      .cls-19 {
        letter-spacing: -.04em;
      }

      .cls-20 {
        fill: #f47ae6;
      }

      .cls-21 {
        font-size: 23.05px;
      }

      .cls-21, .cls-22 {
        fill: #666;
      }

      .cls-21, .cls-22, .cls-23 {
        font-family: FuturaPT-Medium, 'Futura PT';
        font-weight: 500;
      }

      .cls-24 {
        letter-spacing: .02em;
      }

      .cls-25 {
        fill: #ffab17;
      }

      .cls-26 {
        letter-spacing: 0em;
      }

      .cls-27 {
        fill: #aa29af;
      }

      .cls-28 {
        letter-spacing: -.09em;
      }

      .cls-29 {
        letter-spacing: -.15em;
      }

      .cls-4, .cls-22, .cls-11, .cls-23, .cls-13 {
        font-size: 16px;
      }

      .cls-30 {
        fill: #d67241;
      }

      .cls-31 {
        letter-spacing: -.14em;
      }

      .cls-32 {
        letter-spacing: -.05em;
      }

      .cls-33 {
        letter-spacing: -.07em;
      }

      .cls-34 {
        letter-spacing: -.05em;
      }

      .cls-6, .cls-7, .cls-9 {
        fill: #1f0023;
      }

      .cls-7, .cls-8 {
        font-size: 68px;
      }

      .cls-35 {
        letter-spacing: -.02em;
      }

      .cls-36 {
        letter-spacing: -.02em;
      }

      .cls-37 {
        letter-spacing: -.05em;
      }

      .cls-38 {
        letter-spacing: -.03em;
      }

      .cls-39 {
        letter-spacing: -.03em;
      }

      .cls-15, .cls-16, .cls-17 {
        stroke: #2b1604;
        stroke-linecap: round;
        stroke-linejoin: round;
      }

      .cls-40 {
        letter-spacing: 0em;
      }

      .cls-41 {
        letter-spacing: -.08em;
      }

      .cls-42 {
        letter-spacing: -.03em;
      }

      .cls-43 {
        letter-spacing: -.14em;
      }

      .cls-44 {
        fill: #e6e6e6;
      }

      .cls-45 {
        letter-spacing: -.11em;
      }

      .cls-46 {
        fill: #e19014;
      }

      .cls-47 {
        letter-spacing: -.03em;
      }

      .cls-48 {
        letter-spacing: -.03em;
      }

      .cls-49 {
        letter-spacing: -.09em;
      }

      .cls-50 {
        letter-spacing: 0em;
      }

      .cls-16 {
        stroke-width: 3px;
      }

      .cls-51 {
        letter-spacing: 0em;
      }

      .cls-52 {
        letter-spacing: -.04em;
      }

      .cls-53 {
        fill: #ae396a;
      }

      .cls-54 {
        letter-spacing: -.04em;
      }

      .cls-55 {
        letter-spacing: -.02em;
      }

      .cls-56 {
        letter-spacing: -.04em;
      }

      .cls-57 {
        letter-spacing: 0em;
      }

      .cls-58 {
        letter-spacing: -.03em;
      }

      .cls-59 {
        fill: #f4a6ee;
      }

      .cls-60 {
        letter-spacing: -.02em;
      }

      .cls-61 {
        fill: #a55a0f;
      }

      .cls-62 {
        fill: #fdd18a;
      }

      .cls-63 {
        letter-spacing: -.05em;
      }

      .cls-64 {
        letter-spacing: -.01em;
      }

      .cls-12 {
        font-size: 10.1px;
      }

      .cls-65 {
        letter-spacing: -.01em;
      }

      .cls-17 {
        stroke-width: 2.5px;
      }

      .cls-13 {
        fill: #fffaf3;
      }

      .cls-66 {
        fill: #fcfcfc;
      }
    </style>
  </defs>
  <rect id="Bakgrund-2" data-name="Bakgrund" class="cls-66" width="1133" height="744"/>
  <rect id="Grå_rektangel_Övanför_timeline-2" data-name="Grå rektangel Övanför timeline" class="cls-44" x="24.97" y="282.6" width="1083.05" height="86.07"/>
  <rect id="Grå_rektangel_nedanför_timeline-2" data-name="Grå rektangel nedanför timeline" class="cls-44" x="24.97" y="368.69" width="1083.05" height="86.07"/>
  <g id="Storgatan_1-2" data-name="Storgatan 1">
    <path class="cls-62" d="M440.48,35.26h14.51V370.65h-32.48V53.23c0-9.92,8.05-17.97,17.97-17.97Z"/>
    <g>
      <rect class="cls-62" x="556.85" y="-81.11" width="22" height="254.75" transform="translate(614.11 -521.59) rotate(90)"/>
      <text class="cls-4" transform="translate(472.94 51.6)"><tspan x="0" y="0">RE</tspan><tspan class="cls-52" x="15.74" y="0">S</tspan><tspan class="cls-32" x="23.36" y="0">T</tspan><tspan class="cls-51" x="29.46" y="0">AURANG </tspan><tspan class="cls-52" x="95.84" y="0">S</tspan><tspan class="cls-56" x="103.46" y="0">T</tspan><tspan x="109.71" y="0">ORG</tspan><tspan class="cls-32" x="142.58" y="0">AT</tspan><tspan class="cls-51" x="157.9" y="0">AN 1</tspan></text>
    </g>
  </g>
  <g id="Bauhaus-2" data-name="Bauhaus">
    <path class="cls-62" d="M622.12,162.39h18.49v206.94h-120.42v-105.01c0-56.26,45.68-101.94,101.94-101.94Z"/>
    <g>
      <rect class="cls-62" x="633.22" y="162.39" width="317.39" height="125.59"/>
      <text class="cls-8" transform="translate(637.22 249.84)"><tspan x="0" y="0">BAUHAUS</tspan></text>
    </g>
  </g>
  <g id="Lindex-2" data-name="Lindex">
    <path class="cls-46" d="M642.21,287.98h4.21v82.24h-13.2v-73.26c0-4.96,4.03-8.99,8.99-8.99Z"/>
    <g>
      <rect class="cls-46" x="642.21" y="287.98" width="347.13" height="14"/>
      <text class="cls-2" transform="translate(722.99 298.57)"><tspan x="0" y="0">LINDEX</tspan></text>
    </g>
  </g>
  <g id="Tölö_äldreboende-2" data-name="Tölö äldreboende">
    <path class="cls-46" d="M458.45,57.26h26.36V369.5h-44.33V75.23c0-9.92,8.05-17.97,17.97-17.97Z"/>
    <g>
      <rect class="cls-46" x="593.55" y="-77.84" width="22" height="292.2" transform="translate(672.81 -536.28) rotate(90)"/>
      <text class="cls-13" transform="translate(538.05 74.23)"><tspan class="cls-56" x="0" y="0">T</tspan><tspan x="6.26" y="0">Ö</tspan><tspan class="cls-58" x="18.96" y="0">L</tspan><tspan x="24.14" y="0">Ö ÄLDREBOENDE</tspan></text>
    </g>
  </g>
  <g>
    <path class="cls-25" d="M482.91,79.26h28.25V369.5h-52.71V103.73c0-13.5,10.96-24.46,24.46-24.46Z"/>
    <g>
      <rect class="cls-25" x="494.39" y="79.26" width="275.02" height="47.13"/>
      <text class="cls-10" transform="translate(522.78 116.83)"><tspan x="0" y="0">SEAHOUSE</tspan></text>
    </g>
  </g>
  <g id="Gestaltande_animation-2" data-name="Gestaltande animation">
    <path class="cls-59" d="M682.71,372h0v-1.59h-8.99v8.95c0,4.96,4.02,8.99,8.99,8.99h2.38v-14c-.43,0-.86-.12-1.25-.36-.71-.44-1.11-1.2-1.12-1.98Z"/>
    <g>
      <rect class="cls-59" x="878.55" y="178.5" width="14" height="405.69" transform="translate(1266.89 -504.2) rotate(90)"/>
      <text class="cls-6" transform="translate(819.55 384.58)"><tspan x="0" y="0">GE</tspan><tspan class="cls-52" x="9.92" y="0">S</tspan><tspan class="cls-32" x="13.73" y="0">T</tspan><tspan class="cls-57" x="16.78" y="0">A</tspan><tspan class="cls-60" x="21.75" y="0">L</tspan><tspan class="cls-32" x="24.47" y="0">T</tspan><tspan class="cls-57" x="27.52" y="0">ANDE ANIM</tspan><tspan class="cls-19" x="69.38" y="0">A</tspan><tspan x="73.99" y="0">TION</tspan></text>
    </g>
  </g>
  <g>
    <path class="cls-30" d="M512.36,126.39h6.65v243.35h-24.62V144.36c0-9.92,8.05-17.97,17.97-17.97Z"/>
    <g>
      <rect class="cls-30" x="664.96" y="-26.22" width="22" height="327.22" transform="translate(813.35 -538.58) rotate(90)"/>
      <text class="cls-4" transform="translate(585.76 142.72)"><tspan x="0" y="0">BRING, CI</tspan><tspan class="cls-24" x="66.48" y="0">T</tspan><tspan class="cls-51" x="73.63" y="0">Y MAIL</tspan></text>
    </g>
  </g>
  <g id="Nordsjö_idé_ioch_design-2" data-name="Nordsjö idé ioch design">
    <path class="cls-61" d="M646.7,301.96c-2.48,0-4.49,2.01-4.49,4.49v62.94h4.49v-53.94c0-2.48,2.01-4.49,4.49-4.49v-9h-4.49Z"/>
    <g>
      <rect class="cls-61" x="824.87" y="123.79" width="8.98" height="365.33" transform="translate(1135.81 -522.91) rotate(90)"/>
      <text class="cls-5" transform="translate(742.61 309.76)"><tspan x="0" y="0">NORDSJÖ IDÉ OCH DESIGN</tspan></text>
    </g>
  </g>
  <g id="Lakritsroten-2" data-name="Lakritsroten">
    <g>
      <rect class="cls-25" x="699.7" y="310.96" width="399.73" height="48"/>
      <text class="cls-10" transform="translate(772.01 348.82)"><tspan x="0" y="0">LAKRI</tspan><tspan class="cls-42" x="96.43" y="0">T</tspan><tspan x="113.19" y="0">SR</tspan><tspan class="cls-47" x="156.03" y="0">O</tspan><tspan x="187.91" y="0">TEN</tspan></text>
    </g>
    <path class="cls-25" d="M675.72,310.96c-15.99,0-28.95,12.96-28.95,28.95v29.7h52.94v-6.32h0c.02-1.45,.75-2.85,2.07-3.67,.72-.45,1.53-.66,2.32-.66v-48h-28.38Z"/>
  </g>
  <g id="Grundskola-2" data-name="Grundskola">
    <path class="cls-59" d="M206.4,370.65h225.09v337.53h-108.97c-64.09,0-116.12-52.03-116.12-116.12v-221.4h0Z"/>
    <g>
      <rect class="cls-59" x="539.91" y="374.83" width="180" height="486.7" transform="translate(1248.1 -11.73) rotate(90)"/>
      <text class="cls-7" transform="translate(397.79 640.57)"><tspan x="0" y="0">GRUNDS</tspan><tspan class="cls-37" x="259.89" y="0">K</tspan><tspan class="cls-40" x="294.98" y="0">OLA</tspan></text>
    </g>
  </g>
  <g>
    <path class="cls-18" d="M556.53,369.74h60.84v110.6h-40.78c-11.07,0-20.06-8.99-20.06-20.06v-90.54h0Z"/>
    <g>
      <rect class="cls-18" x="789.13" y="245.81" width="22" height="447.07" transform="translate(1269.47 -330.79) rotate(90)"/>
      <text class="cls-11" transform="translate(643.38 475.35)"><tspan x="0" y="0">G</tspan><tspan class="cls-56" x="12.13" y="0">Ö</tspan><tspan x="24.27" y="0">TEBORGS </tspan><tspan class="cls-63" x="92.16" y="0">K</tspan><tspan x="100.42" y="0">ON</tspan><tspan class="cls-52" x="125.38" y="0">S</tspan><tspan class="cls-38" x="132.99" y="0">T</tspan><tspan x="139.38" y="0">S</tspan><tspan class="cls-63" x="147.66" y="0">K</tspan><tspan x="155.92" y="0">OLA, GRAFIK</tspan></text>
    </g>
  </g>
  <g id="Gymnasiet-2" data-name="Gymnasiet">
    <path class="cls-27" d="M460.93,480.34c-11.08,0-20.06-8.98-20.06-20.06v-89.46h-54.14v120.02c0,20.71,16.79,37.5,37.5,37.5h52.58v-48h-15.88Z"/>
    <g>
      <rect class="cls-27" x="692.76" y="228.46" width="48" height="551.77" transform="translate(1221.1 -212.41) rotate(90)"/>
      <text class="cls-3" transform="translate(450.15 518.05)"><tspan x="0" y="0">G</tspan><tspan class="cls-39" x="31.84" y="0">Y</tspan><tspan class="cls-50" x="52.79" y="0">MN</tspan><tspan class="cls-64" x="121.21" y="0">A</tspan><tspan class="cls-26" x="146.87" y="0">SIE</tspan><tspan class="cls-1" x="199.2" y="0">T</tspan><tspan x="213.95" y="0">, BILD OCH FORM</tspan></text>
    </g>
  </g>
  <g id="HDK-2" data-name="HDK">
    <g>
      <rect class="cls-20" x="815.98" y="215.76" width="56" height="429.16" transform="translate(1274.32 -413.64) rotate(90)"/>
      <text class="cls-9" transform="translate(689.55 445.56)"><tspan x="0" y="0">HDK, DESIGN</tspan></text>
    </g>
    <path class="cls-20" d="M629.47,393.36v-23.14h-52.75v52.59c0,19.63,15.91,35.54,35.54,35.54h27.29v-56h-1.09c-4.96,0-8.98-4.02-8.98-8.99Z"/>
  </g>
  <g id="Skiss_och_visualiseringstekniker_inom_design-2" data-name="Skiss och visualiseringstekniker inom design">
    <g>
      <rect class="cls-53" x="863.41" y="191.12" width="14" height="408.44" transform="translate(1265.76 -475.07) rotate(90)"/>
      <text class="cls-5" transform="translate(773.28 397.97)"><tspan x="0" y="0">SKI</tspan><tspan class="cls-55" x="10.66" y="0">S</tspan><tspan x="14.63" y="0">S- OCH VISUALISERING</tspan><tspan class="cls-52" x="93.59" y="0">S</tspan><tspan x="97.4" y="0">TEKNIKER INOM DESIGN</tspan></text>
    </g>
    <path class="cls-53" d="M666.19,379.36v-8.95h-10.08v22.95c0,4.96,4.02,8.99,8.98,8.99h10.08v-14c-4.96,0-8.99-4.02-8.99-8.99Z"/>
  </g>
  <g id="_Årtal_ålder-2" data-name="Årtal/ålder">
    <g>
      <text class="cls-23" transform="translate(261.67 322.18)"><tspan class="cls-31" x="0" y="0">1</tspan><tspan x="6.88" y="0">999</tspan></text>
      <text class="cls-23" transform="translate(172.46 322.18)"><tspan class="cls-31" x="0" y="0">1</tspan><tspan x="6.88" y="0">9</tspan><tspan class="cls-41" x="15.97" y="0">9</tspan><tspan x="23.78" y="0">4</tspan></text>
      <text class="cls-23" transform="translate(350.62 322.18)"><tspan x="0" y="0">20</tspan><tspan class="cls-35" x="18.18" y="0">0</tspan><tspan x="26.86" y="0">4</tspan></text>
      <text class="cls-23" transform="translate(532.02 322.18)"><tspan x="0" y="0">2</tspan><tspan class="cls-28" x="9.09" y="0">0</tspan><tspan class="cls-29" x="16.78" y="0">1</tspan><tspan x="23.47" y="0">4</tspan></text>
      <text class="cls-23" transform="translate(440.27 322.18)"><tspan x="0" y="0">2009</tspan></text>
      <text class="cls-23" transform="translate(621.77 321.96)"><tspan x="0" y="0">2</tspan><tspan class="cls-49" x="9.09" y="0">0</tspan><tspan class="cls-43" x="16.78" y="0">1</tspan><tspan x="23.66" y="0">9</tspan></text>
      <text class="cls-23" transform="translate(82.53 320.93)"><tspan class="cls-43" x="0" y="0">1</tspan><tspan class="cls-58" x="6.88" y="0">9</tspan><tspan class="cls-48" x="15.42" y="0">8</tspan><tspan x="23.95" y="0">9</tspan></text>
    </g>
    <g>
      <text class="cls-23" transform="translate(270.26 434.04)"><tspan class="cls-33" x="0" y="0">1</tspan><tspan x="7.89" y="0">0</tspan></text>
      <text class="cls-23" transform="translate(184.35 434.04)"><tspan x="0" y="0">5</tspan></text>
      <text class="cls-23" transform="translate(360.41 434.04)"><tspan class="cls-45" x="0" y="0">1</tspan><tspan x="7.28" y="0">5</tspan></text>
      <text class="cls-23" transform="translate(539.39 434.04)"><tspan class="cls-36" x="0" y="0">2</tspan><tspan x="8.72" y="0">5</tspan></text>
      <text class="cls-23" transform="translate(449.36 434.04)"><tspan x="0" y="0">20</tspan></text>
      <text class="cls-23" transform="translate(629.06 433.82)"><tspan x="0" y="0">30</tspan></text>
      <text class="cls-23" transform="translate(94.5 432.79)"><tspan x="0" y="0">0</tspan></text>
    </g>
    <text class="cls-22" transform="translate(44.33 432.79)"><tspan x="0" y="0">Ålder</tspan></text>
    <text class="cls-22" transform="translate(54.2 320.93)"><tspan x="0" y="0">År</tspan></text>
  </g>
  <g id="Text_utbildning_arbete-2" data-name="Text utbildning/arbete">
    <text class="cls-21" transform="translate(158.39 579.11) rotate(-90)"><tspan x="0" y="0">Utbildning</tspan></text>
    <text class="cls-21" transform="translate(374.5 254.13) rotate(-90)"><tspan x="0" y="0">Arbete</tspan></text>
  </g>
  <g id="Baby-2" data-name="Baby">
    <path class="cls-14" d="M48.21,371.49c.92,15.77,6.58,27.91,13.44,27.91,5.22,0,9.75-7.05,12.02-17.38l-25.46-10.54Z"/>
    <path class="cls-14" d="M75.19,368.19c0-.41,.03-.81,.03-1.22,0-2.15-.09-4.25-.26-6.29-.02-.27-.05-.53-.07-.8-.87-8.62-6.46-15.28-13.24-15.28s-12.51,6.81-13.27,15.57c-.01,.12-.02,.23-.03,.35-.18,2.08-.27,4.24-.27,6.45,0,.7,.01,1.4,.03,2.09l13.04,5.4,14.05-6.27Zm-13.54-18.21c5.47,0,9.9,4.43,9.9,9.9s-4.43,9.9-9.9,9.9-9.9-4.43-9.9-9.9,4.43-9.9,9.9-9.9Z"/>
    <path class="cls-14" d="M63.95,375.62l10.16,4.2c.52-2.87,.87-5.96,1.02-9.19l-11.17,4.98Z"/>
    <g>
      <circle class="cls-14" cx="56.94" cy="360.23" r="1.16"/>
      <circle class="cls-14" cx="66.35" cy="360.23" r="1.16"/>
    </g>
    <path class="cls-14" d="M64.09,363.06c0,2.07-1.09,3.75-2.45,3.75s-2.45-1.68-2.45-3.75"/>
  </g>
  <g id="Parkeringstjänst_väst-2" data-name="Parkeringstjänst väst">
    <g>
      <rect class="cls-61" x="520.4" y="148.39" width="370.03" height="14"/>
      <text class="cls-12" transform="translate(625.46 158.86)"><tspan class="cls-34" x="0" y="0">P</tspan><tspan x="4.08" y="0">ARKERING</tspan><tspan class="cls-54" x="48.96" y="0">S</tspan><tspan x="53.77" y="0">TJÄN</tspan><tspan class="cls-54" x="75.17" y="0">S</tspan><tspan x="79.98" y="0">T </tspan><tspan class="cls-34" x="86.63" y="0">V</tspan><tspan class="cls-65" x="91.72" y="0">Ä</tspan><tspan class="cls-54" x="97.89" y="0">S</tspan><tspan x="102.7" y="0">T</tspan></text>
    </g>
    <path class="cls-61" d="M520.11,148.39c-4.43,0-8.02,3.59-8.02,8.02v213.09h8.58V170.41c0-4.43,3.59-8.02,8.02-8.02h.56v-14h-9.14Z"/>
  </g>
  <g id="Timeline-2" data-name="Timeline">
    <line class="cls-17" x1="749.47" y1="369.39" x2="100.32" y2="369.39"/>
    <g>
      <line class="cls-16" x1="740.18" y1="361.08" x2="751.71" y2="369.39"/>
      <line class="cls-16" x1="740.18" y1="377.71" x2="751.71" y2="369.39"/>
    </g>
    <line class="cls-15" x1="710.03" y1="356.69" x2="710.03" y2="382.31"/>
    <line class="cls-15" x1="692.06" y1="356.69" x2="692.06" y2="382.31"/>
    <line class="cls-15" x1="674.09" y1="356.69" x2="674.09" y2="382.31"/>
    <line class="cls-15" x1="656.12" y1="356.69" x2="656.12" y2="382.31"/>
    <line class="cls-15" x1="638.15" y1="330.7" x2="638.15" y2="411.73"/>
    <line class="cls-15" x1="620.18" y1="356.69" x2="620.18" y2="382.31"/>
    <line class="cls-15" x1="602.21" y1="356.69" x2="602.21" y2="382.31"/>
    <line class="cls-15" x1="584.24" y1="356.69" x2="584.24" y2="382.31"/>
    <line class="cls-15" x1="566.27" y1="356.69" x2="566.27" y2="382.31"/>
    <line class="cls-15" x1="548.3" y1="345.84" x2="548.3" y2="393.2"/>
    <line class="cls-15" x1="530.33" y1="356.69" x2="530.33" y2="382.31"/>
    <line class="cls-15" x1="512.36" y1="356.69" x2="512.36" y2="382.31"/>
    <line class="cls-15" x1="494.39" y1="356.69" x2="494.39" y2="382.31"/>
    <line class="cls-15" x1="476.42" y1="356.69" x2="476.42" y2="382.31"/>
    <line class="cls-15" x1="458.45" y1="330.7" x2="458.45" y2="411.73"/>
    <line class="cls-15" x1="440.48" y1="356.69" x2="440.48" y2="382.31"/>
    <line class="cls-15" x1="422.51" y1="356.69" x2="422.51" y2="382.31"/>
    <line class="cls-15" x1="404.54" y1="356.69" x2="404.54" y2="382.31"/>
    <line class="cls-15" x1="386.57" y1="356.69" x2="386.57" y2="382.31"/>
    <line class="cls-15" x1="368.6" y1="345.69" x2="368.6" y2="393.05"/>
    <line class="cls-15" x1="350.63" y1="356.69" x2="350.63" y2="382.31"/>
    <line class="cls-15" x1="332.65" y1="356.69" x2="332.65" y2="382.31"/>
    <line class="cls-15" x1="314.68" y1="356.69" x2="314.68" y2="382.31"/>
    <line class="cls-15" x1="296.71" y1="356.69" x2="296.71" y2="382.31"/>
    <line class="cls-15" x1="278.74" y1="330.7" x2="278.74" y2="411.73"/>
    <line class="cls-15" x1="260.77" y1="356.58" x2="260.77" y2="382.2"/>
    <line class="cls-15" x1="242.8" y1="356.58" x2="242.8" y2="382.2"/>
    <line class="cls-15" x1="224.83" y1="356.58" x2="224.83" y2="382.2"/>
    <line class="cls-15" x1="206.86" y1="356.58" x2="206.86" y2="382.2"/>
    <line class="cls-15" x1="188.89" y1="345.69" x2="188.89" y2="393.05"/>
    <line class="cls-15" x1="170.92" y1="356.58" x2="170.92" y2="382.2"/>
    <line class="cls-15" x1="152.95" y1="356.58" x2="152.95" y2="382.2"/>
    <line class="cls-15" x1="134.98" y1="356.58" x2="134.98" y2="382.2"/>
    <line class="cls-15" x1="117.01" y1="356.58" x2="117.01" y2="382.2"/>
    <line class="cls-15" x1="99.04" y1="330.7" x2="99.04" y2="411.73"/>
  </g>
</svg>