<svg width="32" height="32" viewBox="0 0 32 32" fill="none" xmlns="http://www.w3.org/2000/svg">
<g clip-path="url(#clip0_48_88)">
<path d="M0 0.400879V31.5989H32V0.400879H0ZM1.333 1.73388H30.666V30.2649H1.333V1.73388ZM7.734 7.70788C7.734 7.61888 7.922 7.55188 8.031 7.55188C9.17634 7.50343 10.3226 7.48076 11.469 7.48388C15.167 7.48388 16.604 9.50988 16.604 12.1039C16.604 15.4949 14.146 16.9479 11.135 16.9479C10.625 16.9479 10.453 16.9219 10.099 16.9219V22.0469C10.099 22.1559 10.057 22.2029 9.948 22.2029H7.885C7.776 22.2029 7.734 22.1609 7.734 22.0519V7.70788ZM10.099 14.7919C10.406 14.8129 10.651 14.8129 11.182 14.8129C12.739 14.8129 14.208 14.2609 14.208 12.1519C14.208 10.4589 13.156 9.59988 11.375 9.59988C10.849 9.59988 10.344 9.62088 10.099 9.64188V14.7919ZM21.578 13.2029C20.521 13.2029 20.167 13.7339 20.167 14.1719C20.167 14.6559 20.407 14.9849 21.818 15.7139C23.907 16.7299 24.568 17.6929 24.568 19.1249C24.568 21.2549 22.938 22.4009 20.74 22.4009C19.573 22.4009 18.579 22.1559 18.006 21.8279C17.923 21.7859 17.902 21.7189 17.902 21.6089V19.6509C17.902 19.5209 17.965 19.4739 18.053 19.5419C18.8511 20.0608 19.783 20.336 20.735 20.3339C21.792 20.3339 22.23 19.8959 22.23 19.2979C22.23 18.8139 21.923 18.3969 20.584 17.6939C18.688 16.7879 17.896 15.8659 17.896 14.3239C17.896 12.6049 19.24 11.1779 21.568 11.1779C22.714 11.1779 23.521 11.3549 23.964 11.5479C24.073 11.6159 24.094 11.7249 24.094 11.8139V13.6419C24.094 13.7509 24.026 13.8189 23.896 13.7719C23.302 13.4229 22.427 13.1989 21.573 13.1989L21.578 13.2029Z" fill="black"/>
</g>
<defs>
<clipPath id="clip0_48_88">
<rect width="32" height="32" fill="white"/>
</clipPath>
</defs>
</svg>
