<svg width="32" height="32" viewBox="0 0 32 32" fill="none" xmlns="http://www.w3.org/2000/svg">
<g clip-path="url(#clip0_48_90)">
<path d="M0 0.400879V31.5979H32V0.400879H0ZM1.333 1.73488H30.666V30.2659H1.333V1.73488ZM11.697 22.0269C11.697 22.1559 11.677 22.1979 11.526 22.1979H9.473C9.344 22.1979 9.302 22.1369 9.302 22.0269V7.70788C9.302 7.57888 9.363 7.53088 9.473 7.53088H11.546C11.655 7.53088 11.697 7.57888 11.697 7.68788V22.0269ZM14.063 16.8599C14.063 13.6719 16.162 11.1879 19.531 11.1879C19.812 11.1879 19.97 11.1879 20.235 11.2029V7.66688C20.2342 7.64939 20.2369 7.63192 20.243 7.61552C20.2491 7.59911 20.2585 7.58411 20.2705 7.57141C20.2826 7.55871 20.2971 7.54857 20.3131 7.54161C20.3292 7.53464 20.3465 7.531 20.364 7.53088H22.531C22.646 7.53088 22.667 7.57888 22.667 7.64588V20.1209C22.667 20.4899 22.667 20.9539 22.735 21.4599C22.735 21.5479 22.708 21.5689 22.62 21.6159C21.5265 22.1362 20.331 22.4068 19.12 22.4079C16.167 22.4079 14.057 20.5799 14.057 16.8609L14.063 16.8599ZM20.235 13.3639C20.036 13.2759 19.771 13.2289 19.443 13.2289C17.73 13.2289 16.527 14.5459 16.527 16.7489C16.527 19.2599 17.75 20.2699 19.292 20.2699C19.62 20.2699 19.973 20.2289 20.235 20.1139V13.3639Z" fill="black"/>
</g>
<defs>
<clipPath id="clip0_48_90">
<rect width="32" height="32" fill="white"/>
</clipPath>
</defs>
</svg>
