<svg width="32" height="32" viewBox="0 0 32 32" fill="none" xmlns="http://www.w3.org/2000/svg">
<g clip-path="url(#clip0_48_94)">
<path d="M0 0.400879V31.5989H32V0.400879H0ZM1.333 1.73388H30.666V30.2649H1.333V1.73388ZM8.396 7.70288C8.396 7.61388 8.417 7.54688 8.531 7.54688C9.67272 7.50036 10.8153 7.47936 11.958 7.48388C15.656 7.48388 17.26 9.50988 17.26 12.1039C17.26 15.4889 14.812 16.9429 11.796 16.9429C11.291 16.9429 11.114 16.9219 10.76 16.9219V22.0469C10.76 22.1559 10.718 22.1979 10.609 22.1979H8.552C8.437 22.1979 8.396 22.1559 8.396 22.0469V7.70288ZM10.76 14.7859C11.073 14.8069 11.312 14.8069 11.843 14.8069C13.4 14.8069 14.864 14.2599 14.864 12.1459C14.864 10.4529 13.822 9.59388 12.036 9.59388C11.51 9.59388 11.005 9.61988 10.76 9.64088V14.7859ZM19.297 13.5779C19.297 13.4219 19.297 13.0259 19.229 12.2809C19.229 12.1719 19.245 12.1459 19.333 12.1039C20.8891 11.5052 22.5407 11.1928 24.208 11.1819C24.317 11.1819 24.364 11.2029 24.364 11.3119V13.2499C24.364 13.3589 24.328 13.3799 24.218 13.3799C23.3687 13.3269 22.5165 13.4168 21.697 13.6459V22.0469C21.697 22.1559 21.65 22.1979 21.541 22.1979H19.447C19.338 22.1979 19.296 22.1559 19.296 22.0469L19.297 13.5779Z" fill="black"/>
</g>
<defs>
<clipPath id="clip0_48_94">
<rect width="32" height="32" fill="white"/>
</clipPath>
</defs>
</svg>
