<svg width="32" height="32" viewBox="0 0 32 32" fill="none" xmlns="http://www.w3.org/2000/svg">
<g clip-path="url(#clip0_48_92)">
<path d="M0 0.400879V31.5989H32V0.400879H0ZM1.333 1.73388H30.666V30.2649H1.333V1.73388ZM9.047 18.0679L7.99 22.0469C7.969 22.1559 7.922 22.1979 7.792 22.1979H5.834C5.704 22.1979 5.683 22.1509 5.704 21.9999L9.49 8.75488C9.553 8.51488 9.599 8.32288 9.62 7.66088C9.62 7.57188 9.662 7.52588 9.729 7.52588H12.526C12.615 7.52588 12.656 7.55188 12.677 7.66088L16.922 22.0199C16.943 22.1289 16.922 22.1919 16.813 22.1919H14.615C14.506 22.1919 14.438 22.1559 14.417 22.0669L13.318 18.0619H9.047V18.0679ZM12.786 15.9009C12.411 14.4269 11.505 11.1929 11.177 9.63488H11.156C10.87 11.1919 10.151 13.8329 9.599 15.9009H12.786ZM19.932 17.2659C19.958 19.0729 20.812 20.2819 22.838 20.2819C23.63 20.2819 24.307 20.1779 25.01 19.8649C25.099 19.8229 25.166 19.8489 25.166 19.9589V21.6309C25.166 21.7609 25.124 21.8289 25.031 21.8969C24.328 22.2459 23.453 22.4019 22.354 22.4019C18.833 22.4019 17.515 19.8079 17.515 16.9019C17.515 13.7559 19.14 11.1829 22.005 11.1829C24.906 11.1829 25.916 13.6259 25.916 15.6049C25.916 16.2459 25.869 16.7719 25.807 17.0159C25.781 17.1249 25.739 17.1619 25.63 17.1829C25.364 17.2299 24.573 17.2719 23.406 17.2719H19.932V17.2659ZM22.641 15.4319C23.323 15.4319 23.563 15.4319 23.631 15.4109C23.631 15.3219 23.652 15.2439 23.652 15.1819C23.652 14.4529 23.298 13.1189 21.912 13.1189C20.636 13.1189 20.084 14.2439 19.954 15.4319H22.641Z" fill="black"/>
</g>
<defs>
<clipPath id="clip0_48_92">
<rect width="32" height="32" fill="white"/>
</clipPath>
</defs>
</svg>
