<svg width="32" height="32" viewBox="0 0 32 32" fill="none" xmlns="http://www.w3.org/2000/svg">
<path d="M23.6 11.6C24.6 11 25.3001 10.1 25.7001 9C26.1001 7.9 26.1 6.8 25.8 5.7C25.5 4.6 24.8 3.7 23.9 3C23 2.3 21.8001 2 20.7001 2H11.5001C10.3001 2 9.20005 2.4 8.30005 3C7.20005 3.7 6.60005 4.7 6.20005 5.7C5.90005 6.8 5.90005 8 6.30005 9C6.70005 10.1 7.40005 11 8.40005 11.6C7.70005 12.1 7.00005 12.7 6.60005 13.5C6.20005 14.3 6.00005 15.1 6.00005 16C6.00005 16.9 6.20005 17.7 6.60005 18.5C7.00005 19.3 7.60005 19.9 8.40005 20.4C7.40005 21 6.70005 21.9 6.30005 23C5.90005 24.1 5.90005 25.2 6.20005 26.3C6.50005 27.4 7.20005 28.3 8.20005 29C9.10005 29.7 10.3 30 11.4 30C12.8 30 14.2 29.4 15.3 28.5C16.3 27.5 16.9 26.2 16.9 24.8V20C17.9 20.9 19.2 21.4 20.5 21.4H20.6C21.8001 21.4 22.9 21 23.8 20.4C24.7 19.7 25.4001 18.8 25.7001 17.7C26.0001 16.6 26 15.5 25.6 14.4C25.3 13.1 24.5 12.2 23.6 11.6V11.6ZM16.9 3.7H20.6C21.1 3.7 21.6 3.7 22 3.9C22.5 4.1 22.9001 4.3 23.2001 4.7C23.6001 5 23.8 5.4 24 5.9C24.2 6.4 24.3 6.8 24.3 7.3C24.3 7.8 24.2 8.3 24 8.7C23.8 9.1 23.5001 9.5 23.2001 9.9C22.8001 10.2 22.4 10.5 22 10.7C21.5 10.9 21 10.9 20.6 10.9H16.9V3.7V3.7ZM11.4 3.7H15.1V10.7H11.4C10.5 10.7 9.60005 10.3 9.00005 9.6C8.30005 9 8.00005 8.1 8.00005 7.2C8.00005 6.3 8.40005 5.4 9.00005 4.8C9.60005 4.2 10.5 3.8 11.4 3.7V3.7ZM7.80005 16C7.80005 15.1 8.20005 14.2 8.90005 13.5C9.60005 12.8 10.5001 12.5 11.5001 12.5H15.2V19.5H11.5001C10.5001 19.5 9.60005 19.1 8.90005 18.5C8.20005 17.8 7.80005 16.9 7.80005 16V16ZM15.1 24.7C15.1 25.7 14.7 26.6 14 27.2C13.3 27.9 12.4 28.2 11.4 28.2C10.9 28.2 10.4001 28.2 10.0001 28C9.50005 27.8 9.10005 27.6 8.80005 27.3C8.40005 27 8.20005 26.6 8.00005 26.1C7.80005 25.7 7.70005 25.2 7.70005 24.7C7.70005 24.2 7.80005 23.7 8.00005 23.3C8.20005 22.9 8.50005 22.5 8.80005 22.1C9.20005 21.8 9.60005 21.5 10.0001 21.3C10.5001 21.1 11 21.1 11.4 21.1H15.1V24.7V24.7ZM20.6 19.5H20.5C19.6 19.5 18.7 19.1 18.1 18.4C17.5 17.7 17.1 16.9 17.1 16C17.1 15.1 17.5 14.2 18.1 13.6C18.7 12.9 19.6 12.6 20.5 12.5H20.6C21.1 12.5 21.6 12.5 22 12.7C22.5 12.9 22.9001 13.1 23.2001 13.5C23.6001 13.8 23.8 14.2 24 14.7C24.2 15.1 24.3 15.6 24.3 16.1C24.3 16.6 24.2 17.1 24 17.5C23.8 17.9 23.5001 18.3 23.2001 18.7C22.8001 19 22.4 19.3 22 19.5H20.6V19.5Z" fill="black"/>
</svg>
