<svg width="32" height="32" viewBox="0 0 32 32" fill="none" xmlns="http://www.w3.org/2000/svg">
<path d="M1.29065 12.036L11.58 17.94L11.572 19.7L5.71865 16.3427L2.03465 18.436L11.5653 23.9293L11.572 25.6227L1.36132 19.7493C1.38798 20.4373 2.01198 22.5573 3.20532 24.1987C4.41865 25.8613 5.79998 26.5667 5.79998 26.5667L15.2373 32V15.7987L1.29998 7.79467L1.29065 12.036ZM30.7093 6.96933L20.2933 0.964C20.2933 0.964 18.6426 0 16.0106 0C13.2693 0 11.68 0.994667 11.68 0.994667L2.03198 6.51467L16.7106 14.952V32L26.3706 26.4853C26.3706 26.4853 28.0973 25.532 29.4093 23.2667C30.5653 21.272 30.7093 19.3427 30.7093 19.3427V6.96933ZM15.0013 9.744C15.0013 9.744 17.1546 9.34667 18.9746 10.3973L21.8693 12.064C21.8693 12.064 21.8733 13.5267 21.8733 15.712C21.8733 17.4627 20.3906 19.2773 20.3906 19.2773L20.3933 12.856L15.0013 9.744ZM23.5373 23.8267L20.3933 25.6307V23.9387L22.84 22.5387C25.1706 20.8587 25.556 18.3827 25.556 17.524L25.5466 9.91733L18.872 6.076C18.872 6.076 17.8586 5.41067 16.0333 5.41067C14.2106 5.41067 13.216 6.02533 13.216 6.02533L10.872 7.37333L9.39198 6.51867L12.6306 4.66667C12.6306 4.66667 13.8973 3.964 16.0226 3.964C17.972 3.964 19.4893 4.72533 19.4893 4.72533L27.0266 9.08L27.0173 17.3813C27.0706 18.6573 26.476 21.776 23.5373 23.828V23.8267Z" fill="black"/>
</svg>
