<svg width="32" height="32" viewBox="0 0 32 32" fill="none" xmlns="http://www.w3.org/2000/svg">
<g clip-path="url(#clip0_48_104)">
<path d="M28 0H4C1.792 0 0 1.792 0 4V28C0 30.208 1.792 32 4 32H28C30.208 32 32 30.208 32 28V4C32 1.792 30.208 0 28 0ZM13.922 24.24C13.9223 24.4925 13.8727 24.7425 13.7762 24.9758C13.6797 25.2091 13.5382 25.4211 13.3596 25.5996C13.1811 25.7782 12.9691 25.9197 12.7358 26.0162C12.5025 26.1127 12.2525 26.1623 12 26.162H6.078C5.56928 26.1602 5.08201 25.9569 4.72275 25.5967C4.3635 25.2365 4.16153 24.7487 4.161 24.24V6.079C4.161 5.022 5.02 4.162 6.078 4.162H12C13.063 4.162 13.922 5.021 13.922 6.079V24.24ZM27.839 16.24C27.8387 16.7488 27.6368 17.2368 27.2775 17.597C26.9182 17.9572 26.4308 18.1604 25.922 18.162H20C19.4904 18.1615 19.0019 17.9588 18.6415 17.5985C18.2812 17.2381 18.0785 16.7496 18.078 16.24V6.079C18.078 5.022 18.943 4.162 20 4.162H25.922C26.979 4.162 27.839 5.021 27.839 6.079V16.24Z" fill="black"/>
</g>
<defs>
<clipPath id="clip0_48_104">
<rect width="32" height="32" fill="white"/>
</clipPath>
</defs>
</svg>
