<svg width="32" height="26" viewBox="0 0 32 26" fill="none" xmlns="http://www.w3.org/2000/svg">
<g clip-path="url(#clip0_50_108)">
<path d="M31.5 7.21634V21.0249C31.5 22.3095 30.9897 23.5416 30.0813 24.45C29.1729 25.3583 27.9409 25.8687 26.6562 25.8687H5.34375C4.05911 25.8687 2.82708 25.3583 1.9187 24.45C1.01032 23.5416 0.5 22.3095 0.5 21.0249V7.21634L15.5079 16.0475C15.657 16.1354 15.8269 16.1818 16 16.1818C16.1731 16.1818 16.343 16.1354 16.4921 16.0475L31.5 7.21634ZM26.6562 0.681152C27.8481 0.680965 28.9982 1.1202 29.8865 1.91484C30.7747 2.70947 31.3389 3.80371 31.4709 4.98821L16 14.0887L0.529063 4.98821C0.661119 3.80371 1.22525 2.70947 2.11354 1.91484C3.00183 1.1202 4.1519 0.680965 5.34375 0.681152H26.6562Z" fill="black"/>
</g>
<defs>
<clipPath id="clip0_50_108">
<rect width="32" height="26" fill="white"/>
</clipPath>
</defs>
</svg>
