<svg width="18" height="28" viewBox="0 0 18 28" fill="none" xmlns="http://www.w3.org/2000/svg">
<g clip-path="url(#clip0_50_102)">
<path d="M7.12488 23.9998H10.8749C11.0415 23.9998 11.1874 23.9373 11.3124 23.8123C11.4374 23.6873 11.4999 23.5414 11.4999 23.3748C11.4999 23.2081 11.4374 23.0623 11.3124 22.9373C11.1874 22.8123 11.0415 22.7498 10.8749 22.7498H7.12488C6.95821 22.7498 6.81238 22.8123 6.68738 22.9373C6.56238 23.0623 6.49988 23.2081 6.49988 23.3748C6.49988 23.5414 6.56238 23.6873 6.68738 23.8123C6.81238 23.9373 6.95821 23.9998 7.12488 23.9998ZM2.74988 27.7498C2.06238 27.7498 1.47404 27.5052 0.984878 27.016C0.494878 26.526 0.249878 25.9373 0.249878 25.2498V2.74976C0.249878 2.06226 0.494878 1.47351 0.984878 0.983506C1.47404 0.494339 2.06238 0.249756 2.74988 0.249756H15.2499C15.9374 0.249756 16.5261 0.494339 17.0161 0.983506C17.5053 1.47351 17.7499 2.06226 17.7499 2.74976V25.2498C17.7499 25.9373 17.5053 26.526 17.0161 27.016C16.5261 27.5052 15.9374 27.7498 15.2499 27.7498H2.74988ZM2.74988 18.9998H15.2499V6.49976H2.74988V18.9998Z" fill="black"/>
</g>
<defs>
<clipPath id="clip0_50_102">
<rect width="18" height="28" fill="white"/>
</clipPath>
</defs>
</svg>
