<svg width="29" height="21" viewBox="0 0 29 21" fill="none" xmlns="http://www.w3.org/2000/svg">
<g clip-path="url(#clip0_53_114)">
<path fill-rule="evenodd" clip-rule="evenodd" d="M1.30007 0.600098C1.00834 0.600098 0.728546 0.71599 0.522256 0.92228C0.315966 1.12857 0.200073 1.40836 0.200073 1.7001C0.200073 1.99184 0.315966 2.27162 0.522256 2.47791C0.728546 2.6842 1.00834 2.8001 1.30007 2.8001H27.7001C27.9918 2.8001 28.2716 2.6842 28.4779 2.47791C28.6842 2.27162 28.8001 1.99184 28.8001 1.7001C28.8001 1.40836 28.6842 1.12857 28.4779 0.92228C28.2716 0.71599 27.9918 0.600098 27.7001 0.600098H1.30007ZM0.200073 10.5001C0.200073 10.2084 0.315966 9.92857 0.522256 9.72228C0.728546 9.51599 1.00834 9.4001 1.30007 9.4001H27.7001C27.9918 9.4001 28.2716 9.51599 28.4779 9.72228C28.6842 9.92857 28.8001 10.2084 28.8001 10.5001C28.8001 10.7918 28.6842 11.0716 28.4779 11.2779C28.2716 11.4842 27.9918 11.6001 27.7001 11.6001H1.30007C1.00834 11.6001 0.728546 11.4842 0.522256 11.2779C0.315966 11.0716 0.200073 10.7918 0.200073 10.5001V10.5001ZM0.200073 19.3001C0.200073 19.0084 0.315966 18.7286 0.522256 18.5223C0.728546 18.316 1.00834 18.2001 1.30007 18.2001H27.7001C27.9918 18.2001 28.2716 18.316 28.4779 18.5223C28.6842 18.7286 28.8001 19.0084 28.8001 19.3001C28.8001 19.5918 28.6842 19.8716 28.4779 20.0779C28.2716 20.2842 27.9918 20.4001 27.7001 20.4001H1.30007C1.00834 20.4001 0.728546 20.2842 0.522256 20.0779C0.315966 19.8716 0.200073 19.5918 0.200073 19.3001V19.3001Z" fill="black"/>
</g>
<defs>
<clipPath id="clip0_53_114">
<rect width="29" height="21" fill="white"/>
</clipPath>
</defs>
</svg>
